<?xml version="1.0" standalone="no"?>
<!DOCTYPE svg PUBLIC "-//W3C//DTD SVG 20010904//EN"
 "http://www.w3.org/TR/2001/REC-SVG-20010904/DTD/svg10.dtd">
<svg version="1.0" xmlns="http://www.w3.org/2000/svg"
 width="300.000000pt" height="300.000000pt" viewBox="0 0 300.000000 300.000000"
 preserveAspectRatio="xMidYMid meet">
<metadata>
Created by potrace 1.11, written by Peter Selinger 2001-2013
</metadata>
<g transform="translate(0.000000,300.000000) scale(0.100000,-0.100000)"
fill="#000000" stroke="none">
<path d="M0 1500 l0 -1500 1500 0 1500 0 0 1500 0 1500 -1500 0 -1500 0 0
-1500z m1390 530 l0 -150 -177 -2 -178 -3 -3 -527 -2 -528 -175 0 -175 0 -2
528 -3 527 -177 3 -178 2 0 150 0 150 535 0 535 0 0 -150z m1290 0 l0 -150
-260 0 -260 0 0 -130 0 -130 225 0 225 0 0 -150 0 -150 -225 0 -225 0 0 -250
0 -250 -180 0 -180 0 0 680 0 680 440 0 440 0 0 -150z"/>
</g>
</svg>
